<svg aria-hidden="true" style="position: absolute; width: 0; height: 0; overflow: hidden;" version="1.1" xmlns="http://www.w3.org/2000/svg" xmlns:xlink="http://www.w3.org/1999/xlink">
<defs>
<symbol id="icon-arrow-white" viewBox="0 0 30 32">
<path fill="#fff" style="fill: var(--color1, #fff); stroke: var(--color1, #fff)" stroke="#fff" stroke-linejoin="miter" stroke-linecap="butt" stroke-miterlimit="4" stroke-width="2.2857" d="M22.354 6.799c-0.969 0.040-2.115 0.064-3.365 0.047-3.621-0.051-8.244-0.456-11.884-1.955l0.87-2.114c3.229 1.329 7.496 1.733 11.046 1.783 1.758 0.025 3.307-0.037 4.415-0.105 0.554-0.034 0.997-0.070 1.299-0.096 0.151-0.013 0.267-0.025 0.345-0.032l0.107-0.011 0.005-0.001 1.42-0.158-0.158 1.42-0.001 0.005-0.002 0.021-0.009 0.086c-0.008 0.077-0.019 0.194-0.032 0.345-0.027 0.303-0.062 0.745-0.096 1.299-0.068 1.108-0.13 2.657-0.105 4.415 0.050 3.551 0.453 7.817 1.783 11.046l-2.114 0.87c-1.499-3.64-1.904-8.263-1.955-11.884-0.018-1.25 0.007-2.396 0.047-3.365l-20.471 20.471-1.616-1.616 20.471-20.471z"></path>
</symbol>
<symbol id="icon-arrow-right" viewBox="0 0 34 32">
<path stroke-linejoin="miter" stroke-linecap="butt" stroke-miterlimit="4" stroke-width="2.2857" d="M28.95 14.795c-0.713-0.657-1.541-1.45-2.412-2.346-2.525-2.597-5.507-6.151-7.021-9.786l2.11-0.879c1.343 3.223 4.075 6.525 6.55 9.072 1.226 1.261 2.365 2.312 3.197 3.048 0.416 0.368 0.754 0.655 0.987 0.85 0.116 0.097 0.206 0.172 0.267 0.221l0.083 0.068 0.004 0.003 1.116 0.893-1.203 0.963c-0.060 0.049-0.15 0.123-0.267 0.221-0.233 0.195-0.571 0.483-0.987 0.85-0.832 0.736-1.971 1.787-3.197 3.048-2.475 2.546-5.207 5.849-6.55 9.071l-2.11-0.879c1.514-3.634 4.497-7.189 7.021-9.786 0.871-0.896 1.699-1.689 2.412-2.346h-28.95v-2.286h28.95z"></path>
</symbol>
<symbol id="icon-arrow-down" viewBox="0 0 26 32">
<path stroke-linejoin="miter" stroke-linecap="butt" stroke-miterlimit="4" stroke-width="2" d="M14.054 26.331c0.575-0.624 1.269-1.349 2.053-2.111 2.272-2.209 5.383-4.819 8.563-6.144l0.769 1.846c-2.82 1.175-5.71 3.566-7.938 5.731-1.103 1.072-2.023 2.069-2.667 2.797-0.322 0.364-0.574 0.66-0.744 0.863-0.085 0.102-0.15 0.181-0.193 0.233l-0.059 0.073-0.002 0.003-0.781 0.976-0.795-0.994-0.048-0.059c-0.043-0.053-0.108-0.132-0.193-0.233-0.171-0.204-0.423-0.5-0.744-0.863-0.644-0.728-1.564-1.725-2.667-2.797-2.228-2.166-5.117-4.556-7.938-5.731l0.769-1.846c3.18 1.325 6.29 3.934 8.562 6.144 0.784 0.762 1.478 1.487 2.053 2.111v-25.331h2v25.331z"></path>
</symbol>
</defs>
</svg>
