<svg aria-hidden="true" style="position: absolute; width: 0; height: 0; overflow: hidden;" version="1.1" xmlns="http://www.w3.org/2000/svg" xmlns:xlink="http://www.w3.org/1999/xlink">
<defs>
<symbol id="icon-arrow-down" viewBox="0 0 26 32">
<path stroke-linejoin="miter" stroke-linecap="butt" stroke-miterlimit="4" stroke-width="2" d="M14.060 26.34c0.56-0.64 1.26-1.36 2.040-2.12 2.28-2.2 5.4-4.8 8.58-6.14l0.76 1.84c-3.075 1.505-5.7 3.427-7.933 5.733l-0.007 0.007c-1.247 1.215-2.424 2.48-3.535 3.801l-0.065 0.079-0.060 0.060v0.020l-0.8 0.98-0.76-0.98h-0.020l-0.040-0.080c-0.329-0.401-0.636-0.753-0.954-1.095l0.014 0.015c-0.64-0.74-1.56-1.74-2.68-2.8-2.24-2.312-4.865-4.235-7.776-5.667l-0.164-0.073 0.78-1.84c3.18 1.32 6.28 3.92 8.56 6.12 0.8 0.76 1.48 1.48 2.060 2.12v-25.32h2v25.34z"></path>
</symbol>
<symbol id="icon-arrow-right" viewBox="0 0 34 32">
<path stroke-linejoin="miter" stroke-linecap="butt" stroke-miterlimit="4" stroke-width="2.2857" d="M28.96 14.789c-0.731-0.64-1.554-1.44-2.423-2.331-2.514-2.606-5.486-6.171-7.017-9.806l2.103-0.869c1.72 3.514 3.917 6.514 6.552 9.066l0.009 0.008c1.388 1.426 2.834 2.77 4.344 4.040l0.090 0.074 0.069 0.069h0.023l1.12 0.914-1.12 0.869v0.023l-0.091 0.046c-0.458 0.376-0.86 0.727-1.251 1.090l0.017-0.015c-0.846 0.731-1.989 1.783-3.2 3.063-2.641 2.554-4.838 5.546-6.476 8.864l-0.084 0.187-2.103-0.869c1.825-3.788 4.169-7.024 6.988-9.776l0.007-0.007c0.869-0.914 1.691-1.691 2.423-2.354h-28.937v-2.286h28.96z"></path>
</symbol>
<symbol id="icon-arrow-white" viewBox="0 0 34 32">
<path fill="#fff" style="fill: var(--color1, #fff); stroke: var(--color1, #fff)" stroke="#fff" stroke-linejoin="miter" stroke-linecap="butt" stroke-miterlimit="4" stroke-width="1.6" d="M22.048 9.552c-0.672 0.032-1.488 0.048-2.352 0.048-2.544-0.048-5.76-0.32-8.32-1.376l0.608-1.472c2.199 0.793 4.736 1.251 7.38 1.251 0.122 0 0.244-0.001 0.366-0.003l-0.018 0c0.165 0.002 0.361 0.004 0.556 0.004 1.297 0 2.58-0.059 3.846-0.176l-0.163 0.012 0.064-0.016h0.016l0.992-0.112-0.112 0.992v0.080c-0.038 0.305-0.072 0.703-0.094 1.104l-0.002 0.048c-0.048 0.768-0.080 1.856-0.064 3.088-0.002 0.103-0.003 0.226-0.003 0.348 0 2.644 0.458 5.181 1.299 7.537l-0.049-0.156-1.488 0.608c-1.040-2.544-1.328-5.776-1.36-8.32-0.016-0.864 0-1.664 0.032-2.352l-14.336 14.336-1.12-1.12 14.32-14.352z"></path>
</symbol>
<symbol id="icon-number-black" viewBox="0 0 32 32">
<path  d="M32 16c0 8.837-7.163 16-16 16s-16-7.163-16-16v0c0-8.837 7.163-16 16-16s16 7.163 16 16v0z"></path>
<path  d="M23.696 19.408c-0.8 1.072-1.84 1.6-3.136 1.6-1.28 0-2.336-0.528-3.136-1.6-0.746-1.090-1.191-2.438-1.191-3.889 0-0.112 0.003-0.224 0.008-0.334l-0.001 0.016c0-1.728 0.4-3.12 1.184-4.192 0.681-0.982 1.803-1.617 3.072-1.617 0.022 0 0.045 0 0.067 0.001l-0.003-0c1.296 0 2.336 0.544 3.136 1.616s1.2 2.464 1.2 4.192c0.005 0.094 0.007 0.204 0.007 0.315 0 1.455-0.452 2.804-1.222 3.916l0.015-0.023zM18.896 12.272c-0.432 0.752-0.64 1.728-0.64 2.928s0.208 2.176 0.64 2.928 0.992 1.12 1.664 1.12c0.704 0 1.264-0.368 1.68-1.12 0.417-0.777 0.661-1.7 0.661-2.68 0-0.087-0.002-0.174-0.006-0.26l0 0.012c0.004-0.083 0.007-0.179 0.007-0.276 0-0.969-0.239-1.882-0.662-2.683l0.015 0.031c-0.432-0.752-0.992-1.12-1.696-1.12-0.672 0-1.232 0.368-1.68 1.12zM7.248 19.36c1.635-1.304 3.096-2.618 4.476-4.012l0.004-0.004c0.752-0.832 1.136-1.616 1.136-2.368 0-0.56-0.176-1.024-0.544-1.392-0.352-0.368-0.8-0.544-1.36-0.544-0.592 0-1.072 0.224-1.44 0.672-0.368 0.432-0.544 1.008-0.544 1.712h-2c0-1.232 0.368-2.224 1.088-2.992 0.705-0.714 1.684-1.156 2.766-1.156 0.062 0 0.125 0.001 0.186 0.004l-0.009-0c1.168 0 2.096 0.32 2.8 0.992 0.704 0.656 1.056 1.536 1.056 2.608-0.037 1.15-0.473 2.192-1.173 2.998l0.005-0.006c-0.768 0.96-2.048 2.080-3.84 3.328h4.72v1.6h-7.328v-1.44z"></path>
</symbol>
<symbol id="icon-number-white" viewBox="0 0 32 32">
<path fill="var(--myColor1)" d="M32 16c0 8.837-7.163 16-16 16s-16-7.163-16-16v0c0-8.837 7.163-16 16-16s16 7.163 16 16v0z"></path>
<path fill="var(--myColor2)" d="M23.696 19.408c-0.8 1.072-1.84 1.6-3.136 1.6-1.28 0-2.336-0.528-3.136-1.6-0.746-1.090-1.191-2.438-1.191-3.889 0-0.112 0.003-0.224 0.008-0.334l-0.001 0.016c0-1.728 0.4-3.12 1.184-4.192 0.681-0.982 1.803-1.617 3.072-1.617 0.022 0 0.045 0 0.067 0.001l-0.003-0c1.296 0 2.336 0.544 3.136 1.616s1.2 2.464 1.2 4.192c0.005 0.094 0.007 0.204 0.007 0.315 0 1.455-0.452 2.804-1.222 3.916l0.015-0.023zM18.896 12.272c-0.432 0.752-0.64 1.728-0.64 2.928s0.208 2.176 0.64 2.928 0.992 1.12 1.664 1.12c0.704 0 1.264-0.368 1.68-1.12 0.417-0.777 0.661-1.7 0.661-2.68 0-0.087-0.002-0.174-0.006-0.26l0 0.012c0.004-0.083 0.007-0.179 0.007-0.276 0-0.969-0.239-1.882-0.662-2.683l0.015 0.031c-0.432-0.752-0.992-1.12-1.696-1.12-0.672 0-1.232 0.368-1.68 1.12zM7.248 19.36c1.635-1.304 3.096-2.618 4.476-4.012l0.004-0.004c0.752-0.832 1.136-1.616 1.136-2.368 0-0.56-0.176-1.024-0.544-1.392-0.352-0.368-0.8-0.544-1.36-0.544-0.592 0-1.072 0.224-1.44 0.672-0.368 0.432-0.544 1.008-0.544 1.712h-2c0-1.232 0.368-2.224 1.088-2.992 0.705-0.714 1.684-1.156 2.766-1.156 0.062 0 0.125 0.001 0.186 0.004l-0.009-0c1.168 0 2.096 0.32 2.8 0.992 0.704 0.656 1.056 1.536 1.056 2.608-0.037 1.15-0.473 2.192-1.173 2.998l0.005-0.006c-0.768 0.96-2.048 2.080-3.84 3.328h4.72v1.6h-7.328v-1.44z"></path>
</symbol>
</defs>
</svg>
