<svg aria-hidden="true" style="position: absolute; width: 0; height: 0; overflow: hidden;" version="1.1" xmlns="http://www.w3.org/2000/svg" xmlns:xlink="http://www.w3.org/1999/xlink">
<defs>
<symbol id="icon-arrow-white-1" viewBox="0 0 32 32">
<path fill="#fff" style="fill: var(--color1, #fff)" d="M24.197 6.037c-1.052 0.050-2.305 0.075-3.682 0.050-3.958-0.050-9.018-0.501-13.025-2.129l0.952-2.33c3.442 1.241 7.414 1.958 11.554 1.958 0.191 0 0.383-0.002 0.573-0.005l-0.029 0c0.264 0.004 0.576 0.006 0.888 0.006 2.033 0 4.044-0.093 6.030-0.275l-0.255 0.019h0.1l1.578-0.175-0.175 1.553v0.125c-0.055 0.457-0.108 1.080-0.146 1.707l-0.005 0.097c-0.082 1.225-0.129 2.655-0.129 4.096 0 0.26 0.002 0.519 0.005 0.778l-0-0.039c-0.003 0.162-0.004 0.353-0.004 0.545 0 4.14 0.717 8.112 2.034 11.799l-0.076-0.245-2.33 0.952c-1.628-4.008-2.079-9.043-2.129-13.025 0-1.378 0-2.63 0.050-3.682l-22.444 22.444-1.753-1.778 22.419-22.469z"></path>
<path fill="none" stroke="#fff" style="stroke: var(--color1, #fff)" stroke-linejoin="miter" stroke-linecap="butt" stroke-miterlimit="4" stroke-width="2.5039" d="M20.54 6.087c-4.008-0.050-9.068-0.501-13.025-2.129l0.927-2.33c3.442 1.241 7.414 1.958 11.554 1.958 0.191 0 0.383-0.002 0.573-0.005l-0.029 0c0.264 0.004 0.576 0.006 0.888 0.006 2.033 0 4.044-0.093 6.030-0.275l-0.255 0.019h0.1l1.578-0.175-0.175 1.553v0.125c-0.055 0.457-0.108 1.080-0.146 1.707l-0.005 0.097c-0.082 1.225-0.129 2.655-0.129 4.096 0 0.26 0.002 0.519 0.005 0.778l-0-0.039c-0.003 0.162-0.004 0.353-0.004 0.545 0 4.14 0.717 8.112 2.034 11.799l-0.076-0.245-2.33 0.952c-1.628-4.008-2.079-9.043-2.129-13.025 0-1.378 0-2.63 0.050-3.682l-22.444 22.444-1.753-1.778 22.419-22.469c-1.052 0.050-2.305 0.075-3.682 0.050z"></path>
</symbol>
<symbol id="icon-arrow-right-1" viewBox="0 0 38 32">
<path d="M30.785 14.846c-0.872-0.803-1.679-1.588-2.465-2.394l-0.013-0.013c-2.571-2.665-5.61-6.311-7.176-10.004l2.15-0.912c1.759 3.593 4.006 6.662 6.7 9.271l0.009 0.008c1.42 1.458 2.898 2.833 4.442 4.132l0.092 0.076 0.070 0.070h0.023l1.145 0.935-1.145 0.912-0.093 0.070c-0.474 0.393-0.885 0.752-1.286 1.12l0.024-0.022c-1.166 1.031-2.233 2.046-3.262 3.098l-0.011 0.011c-2.703 2.618-4.95 5.686-6.623 9.088l-0.085 0.192-2.15-0.912c1.873-3.875 4.278-7.184 7.168-9.997l0.008-0.008c0.888-0.912 1.73-1.73 2.478-2.384h-29.616v-2.337h29.616z"></path>
<path fill="none" stroke="#000" style="stroke: var(--color2, #000)" stroke-linejoin="miter" stroke-linecap="butt" stroke-miterlimit="4" stroke-width="2.3375" d="M28.307 12.438c-2.571-2.665-5.61-6.311-7.176-10.004l2.15-0.912c1.759 3.593 4.006 6.662 6.7 9.271l0.009 0.008c1.42 1.458 2.898 2.833 4.442 4.132l0.092 0.076 0.070 0.070h0.023l1.145 0.935-1.145 0.912-0.093 0.070c-0.474 0.393-0.885 0.752-1.286 1.12l0.024-0.022c-1.166 1.031-2.233 2.046-3.262 3.098l-0.011 0.011c-2.703 2.618-4.95 5.686-6.623 9.088l-0.085 0.192-2.15-0.912c1.873-3.875 4.278-7.184 7.168-9.997l0.008-0.008c0.888-0.912 1.73-1.73 2.478-2.384h-29.616v-2.337h29.616c-0.872-0.803-1.679-1.588-2.465-2.394l-0.013-0.013z"></path>
</symbol>
<symbol id="icon-arrow-down-1" viewBox="0 0 27 32">
<path d="M14.611 26.176c0.557-0.636 1.252-1.352 2.027-2.107 2.266-2.186 5.366-4.77 8.507-6.102l0.775 1.829c-3.056 1.496-5.665 3.406-7.884 5.697l-0.007 0.007c-1.24 1.207-2.409 2.465-3.513 3.777l-0.064 0.078-0.060 0.060v0.020l-0.795 0.974-0.755-0.974h-0.020l-0.060-0.079c-0.33-0.407-0.629-0.757-0.937-1.099l0.022 0.025c-0.881-0.989-1.75-1.896-2.651-2.77l-0.013-0.012c-2.226-2.298-4.835-4.209-7.727-5.632l-0.163-0.073 0.775-1.829c3.16 1.312 6.241 3.896 8.507 6.082 0.795 0.755 1.471 1.471 2.047 2.107v-25.163h1.988v25.183z"></path>
<path fill="none" stroke="#000" style="stroke: var(--color2, #000)" stroke-linejoin="miter" stroke-linecap="butt" stroke-miterlimit="4" stroke-width="1.9876" d="M16.639 24.070c2.266-2.186 5.366-4.77 8.507-6.102l0.775 1.829c-3.056 1.496-5.665 3.406-7.884 5.697l-0.007 0.007c-1.24 1.207-2.409 2.465-3.513 3.777l-0.064 0.078-0.060 0.060v0.020l-0.795 0.974-0.755-0.974h-0.020l-0.060-0.079c-0.33-0.407-0.629-0.757-0.937-1.099l0.022 0.025c-0.881-0.989-1.75-1.896-2.651-2.77l-0.013-0.012c-2.226-2.298-4.835-4.209-7.727-5.632l-0.163-0.073 0.775-1.829c3.16 1.312 6.241 3.896 8.507 6.082 0.795 0.755 1.471 1.471 2.047 2.107v-25.163h1.988v25.183c0.557-0.636 1.252-1.352 2.027-2.107z"></path>
</symbol>
</defs>
</svg>
